HIERARCHY
ROOT Hips
{
	OFFSET 0.000000 0.000000 0.000000
	CHANNELS 6 Xposition Yposition Zposition Zrotation Yrotation Xrotation 
	JOINT LeftUpLeg_virtual
	{
		OFFSET 0.000000 0.000000 0.000000
		CHANNELS 3 Zrotation Yrotation Xrotation
		JOINT LeftUpLeg
		{
			OFFSET 10.205400 -3.823500 0.155100
			CHANNELS 3 Zrotation Yrotation Xrotation
			JOINT LeftLeg
			{
				OFFSET 0.708757 -12.982077 0.567790
				CHANNELS 3 Zrotation Yrotation Xrotation
				JOINT LeftFoot
				{
					OFFSET -0.708756 -10.717838 -2.184338
					CHANNELS 3 Zrotation Yrotation Xrotation
					JOINT LeftToeBase
					{
						OFFSET 0.108149 -7.191104 7.560241
						CHANNELS 3 Zrotation Yrotation Xrotation
						End Site
						{
							OFFSET 0.000000 0.000000 0.000000
						}
					}
				}
			}
		}
	}
	JOINT RightUpLeg_virtual
	{
		OFFSET 0.000000 0.000000 0.000000
		CHANNELS 3 Zrotation Yrotation Xrotation
		JOINT RightUpLeg
		{
			OFFSET -10.205400 -3.823500 0.005500
			CHANNELS 3 Zrotation Yrotation Xrotation
			JOINT RightLeg
			{
				OFFSET -0.708756 -12.982134 0.610632
				CHANNELS 3 Zrotation Yrotation Xrotation
				JOINT RightFoot
				{
					OFFSET 0.708754 -10.717769 -1.945823
					CHANNELS 3 Zrotation Yrotation Xrotation
					JOINT RightToeBase
					{
						OFFSET -0.108140 -7.191069 7.372968
						CHANNELS 3 Zrotation Yrotation Xrotation
						End Site
						{
							OFFSET 0.000000 0.000000 0.000000
						}
					}
				}
			}
		}
	}
	JOINT Spine_virtual
	{
		OFFSET 0.000000 0.000000 0.000000
		CHANNELS 3 Zrotation Yrotation Xrotation
		JOINT Spine
		{
			OFFSET 0.000000 6.876099 0.125700
			CHANNELS 3 Zrotation Yrotation Xrotation
			JOINT Spine1
			{
				OFFSET 0.000000 8.022060 0.146608
				CHANNELS 3 Zrotation Yrotation Xrotation
				JOINT Spine2
				{
					OFFSET 0.000000 9.168068 0.167552
					CHANNELS 3 Zrotation Yrotation Xrotation
					JOINT Neck_virtual
					{
						OFFSET 0.000000 0.000000 0.000000
						CHANNELS 3 Zrotation Yrotation Xrotation
						JOINT Neck
						{
							OFFSET 0.000000 10.314075 0.188496
							CHANNELS 3 Zrotation Yrotation Xrotation
							JOINT Head
							{
								OFFSET 0.000000 7.643700 -2.377400
								CHANNELS 3 Zrotation Yrotation Xrotation
								End Site
								{
									OFFSET 0.000000 0.000000 0.000000
								}
							}
						}
					}
					JOINT LeftShoulder_virtual
					{
						OFFSET 0.000000 0.000000 0.000000
						CHANNELS 3 Zrotation Yrotation Xrotation
						JOINT LeftShoulder
						{
							OFFSET 4.392200 8.824978 0.174984
							CHANNELS 3 Zrotation Yrotation Xrotation
							JOINT LeftArm
							{
								OFFSET 8.771219 -2.981674 -0.026999
								CHANNELS 3 Zrotation Yrotation Xrotation
								JOINT LeftForeArm
								{
									OFFSET 8.512804 0.000000 -0.000000
									CHANNELS 3 Zrotation Yrotation Xrotation
									JOINT LeftHand
									{
										OFFSET 18.484802 0.000000 -0.000000
										CHANNELS 3 Zrotation Yrotation Xrotation
										End Site
										{
											OFFSET 0.000000 0.000000 0.000000
										}
									}
								}
							}
						}
					}
					JOINT RightShoulder_virtual
					{
						OFFSET 0.000000 0.000000 0.000000
						CHANNELS 3 Zrotation Yrotation Xrotation
						JOINT RightShoulder
						{
							OFFSET -4.392200 8.824993 0.141379
							CHANNELS 3 Zrotation Yrotation Xrotation
							JOINT RightArm
							{
								OFFSET -8.771282 -2.981682 -0.094208
								CHANNELS 3 Zrotation Yrotation Xrotation
								JOINT RightForeArm
								{
									OFFSET -8.494598 0.000000 0.000000
									CHANNELS 3 Zrotation Yrotation Xrotation
									JOINT RightHand
									{
										OFFSET -18.483803 0.000000 0.000001
										CHANNELS 3 Zrotation Yrotation Xrotation
										End Site
										{
											OFFSET 0.000000 0.000000 0.000000
										}
									}
								}
							}
						}
					}
				}
			}
		}
	}
}
MOTION
Frames: 13
Frame Time: 0.033333
4.393138 35.503132 23.706480 -179.848484 -7.190921 -179.591915 -1.408900 1.834953 9.772202 -3.240370 14.283900 -18.498809 12.556461 2.502810 25.320741 -0.581844 -2.593852 10.000038 0.000000 0.000000 0.000000 3.623259 4.932470 8.444965 -5.632175 -3.149239 -6.950046 -2.970119 -0.114090 20.605158 6.998421 5.196345 3.795273 0.000000 0.000000 0.000000 2.460821 4.559637 -3.246234 8.984045 -0.670069 -10.217534 0.593520 -6.141415 8.961977 -0.031052 0.116849 0.049547 0.321072 -4.493364 10.837881 2.433332 -7.945886 14.981574 0.000000 0.000000 0.000000 1.906550 -4.044945 7.510753 -8.501608 -10.337017 5.568182 -46.410405 -3.864069 42.058836 -142.465261 -83.727300 156.490562 0.000000 0.000000 0.000000 -1.931757 -2.714260 7.319887 29.932044 8.050784 6.838730 39.199736 -38.398958 10.600710 -6.107876 57.875266 -11.922845 0.000000 0.000000 0.000000 
3.662652 35.464706 23.566135 179.940979 -11.663220 -179.632855 -1.405980 1.357455 9.771286 -4.761079 13.032126 -17.891301 12.706382 2.393665 24.065989 -0.123989 -3.057668 8.098724 0.000000 0.000000 0.000000 4.072623 4.040596 8.706994 -7.765382 -3.508912 -5.537353 -2.808136 -1.053745 22.024833 7.422762 4.996560 2.435829 0.000000 0.000000 0.000000 3.020057 4.150440 -3.899430 9.330562 -0.400568 -11.213874 0.466927 -6.363646 8.838366 -0.016697 0.139434 0.034767 0.191503 -4.738222 10.833985 2.902651 -8.319720 16.868388 0.000000 0.000000 0.000000 1.867648 -4.268894 7.379009 -8.607216 -9.757972 5.275420 -47.345772 -6.973717 44.372413 -146.589438 -82.901455 160.618988 0.000000 0.000000 0.000000 -1.989777 -2.978461 7.267886 29.725198 8.105016 7.049357 40.688257 -40.030970 9.287308 -5.401110 53.736978 -11.209610 0.000000 0.000000 0.000000 
2.984172 35.428490 23.446001 179.518777 -15.910118 -179.622924 -1.341391 0.998568 9.571879 -6.073222 11.453506 -17.403930 12.182873 2.584375 23.035330 0.640976 -3.155385 7.738472 0.000000 0.000000 0.000000 4.584524 3.317703 9.041928 -9.578848 -3.158280 -4.007563 -2.582393 -1.498615 22.969994 7.761680 4.898383 1.053094 0.000000 0.000000 0.000000 3.366821 3.893872 -4.580575 9.448553 0.027666 -12.011698 0.140080 -6.542099 8.864067 0.009357 0.130167 0.079561 0.104902 -5.057268 10.909990 3.610609 -8.458251 18.695532 0.000000 0.000000 0.000000 1.691454 -4.320841 7.258923 -8.544235 -8.948318 4.983887 -48.006210 -9.376864 46.449436 -149.993235 -82.127622 163.863601 0.000000 0.000000 0.000000 -2.243702 -3.011506 7.289624 29.471416 8.387931 7.344051 42.252257 -41.140115 8.342107 -4.669407 49.416077 -10.392356 0.000000 0.000000 0.000000 
2.424557 35.402233 23.316879 179.098680 -19.966024 -179.445667 -1.391345 0.461610 9.210112 -6.995535 9.200224 -16.848750 11.457634 1.761834 22.154041 1.886734 -2.952071 7.788875 0.000000 0.000000 0.000000 5.016762 2.290864 9.036779 -10.962787 -2.682288 -2.632753 -2.297194 -1.794851 23.871060 8.045661 4.885411 0.304855 0.000000 0.000000 0.000000 3.504800 3.585600 -5.311867 9.420508 0.681169 -12.757873 -0.083787 -6.665623 8.951279 -0.014740 0.188998 0.041285 -0.284440 -5.087675 11.126325 3.880321 -8.854302 20.423217 0.000000 0.000000 0.000000 1.481424 -4.458964 7.314661 -8.517249 -8.067991 4.521094 -48.539740 -10.948899 48.326307 -152.791318 -81.717859 166.697105 0.000000 0.000000 0.000000 -2.553957 -3.171500 7.396309 29.190538 8.794895 7.468796 43.863519 -42.003327 7.610672 -4.262012 45.195089 -9.796142 0.000000 0.000000 0.000000 
1.969685 35.370049 23.189959 178.914510 -23.724577 -179.234682 -1.351666 -0.167564 8.771612 -7.534882 6.808862 -16.338282 11.330604 1.908521 21.505979 2.621701 -2.892742 7.984223 0.000000 0.000000 0.000000 5.330173 1.224711 8.881102 -12.031038 -2.324357 -1.383065 -1.968212 -1.946266 24.705817 8.241743 4.991083 -0.056555 0.000000 0.000000 0.000000 3.781619 2.736416 -6.203693 9.360143 1.524870 -13.232965 -0.498506 -6.555397 9.073455 0.046032 0.490710 0.023366 -0.665637 -5.180877 11.249812 4.232313 -9.206225 22.018961 0.000000 0.000000 0.000000 1.110860 -4.518023 7.293183 -8.349212 -7.227706 4.074418 -48.643484 -12.028055 49.973830 -154.711366 -81.567997 168.515069 0.000000 0.000000 0.000000 -2.985381 -3.315736 7.435879 28.938542 9.209414 7.659267 45.401490 -42.472493 7.172143 -3.822256 41.538069 -9.078277 0.000000 0.000000 0.000000 
1.595411 35.327194 23.051867 178.750422 -27.113209 -178.949727 -1.231276 -1.022585 8.353457 -7.785390 4.604319 -15.949591 11.109490 2.429091 21.243603 3.030584 -2.989159 8.042940 0.000000 0.000000 0.000000 5.516559 -0.031922 8.649028 -12.907125 -2.052680 -0.242649 -1.596095 -1.996457 25.593470 8.390072 5.250434 -0.254718 0.000000 0.000000 0.000000 3.883108 2.247183 -7.020833 9.121555 2.133353 -13.915851 -0.818356 -6.446541 9.132893 0.071865 0.373680 -0.048156 -1.052510 -5.138664 11.448609 4.560495 -9.541392 23.455910 0.000000 0.000000 0.000000 0.883938 -4.527396 7.210303 -8.301058 -6.275047 3.721505 -48.784811 -12.515061 51.396559 -155.324581 -81.711575 169.038958 0.000000 0.000000 0.000000 -3.331326 -3.323044 7.654386 28.815612 9.678458 7.760979 46.778419 -42.778076 6.877852 -3.692204 38.389536 -8.576663 0.000000 0.000000 0.000000 
1.304765 35.262928 22.910667 178.541336 -30.244826 -178.697310 -1.098608 -1.798756 7.919150 -7.858694 2.689071 -15.570717 10.827195 2.987916 21.213109 3.305067 -3.095828 7.971090 0.000000 0.000000 0.000000 5.662651 -1.217594 8.292432 -13.653689 -1.841299 0.559343 -1.204696 -2.019189 26.392674 8.566045 5.677457 -0.561261 0.000000 0.000000 0.000000 3.883865 1.619539 -7.949072 8.766665 2.842328 -14.485819 -1.072865 -6.609446 9.261455 0.084372 0.518648 -0.024936 -1.334142 -5.209582 11.615223 4.849667 -9.775241 24.821174 0.000000 0.000000 0.000000 0.666469 -4.495271 7.421060 -8.183773 -5.505846 3.319495 -48.397703 -12.853340 52.568394 -157.170152 -81.785894 170.780192 0.000000 0.000000 0.000000 -3.589415 -3.375288 7.854274 28.815984 10.086253 7.677492 48.140891 -43.050054 6.759767 -3.660257 36.058734 -8.170414 0.000000 0.000000 0.000000 
1.069910 35.180054 22.810612 178.254591 -33.034627 -178.422341 -1.027789 -2.358393 7.464769 -7.921407 1.200051 -15.248346 10.440358 3.692419 21.275445 3.488595 -3.204762 7.792557 0.000000 0.000000 0.000000 5.797376 -2.177441 7.894608 -14.294411 -1.667666 1.169891 -0.802782 -2.021618 27.211605 8.792074 6.205065 -0.932923 0.000000 0.000000 0.000000 3.820587 0.976096 -8.825723 8.419736 3.420891 -14.978759 -1.168395 -6.419546 9.408452 0.094529 0.427315 -0.018546 -1.511324 -5.264367 11.800705 5.063393 -10.384241 26.162577 0.000000 0.000000 0.000000 0.567795 -4.499580 7.515129 -8.009315 -4.895837 2.990591 -48.181230 -12.814852 53.427891 -157.829593 -81.871429 171.363422 0.000000 0.000000 0.000000 -3.790521 -3.229748 7.957874 28.935806 10.239046 7.767400 49.630863 -43.073178 6.382568 -3.712619 34.431919 -7.790907 0.000000 0.000000 0.000000 
0.895935 35.081676 22.772230 177.932821 -35.467950 -178.142849 -0.987273 -2.551328 6.936472 -7.930157 0.055442 -14.957605 9.937448 4.319979 21.403018 3.587523 -3.319729 7.491193 0.000000 0.000000 0.000000 5.966783 -2.824718 7.469088 -14.772022 -1.503159 1.779356 -0.431427 -1.968994 28.182243 9.053212 6.731947 -1.333692 0.000000 0.000000 0.000000 3.748611 0.803809 -9.659939 8.036362 3.868535 -15.373537 -1.327538 -6.636570 9.611042 0.086833 0.422580 0.066317 -1.475930 -5.149709 11.965973 5.344821 -10.345960 27.515622 0.000000 0.000000 0.000000 0.640691 -4.455399 7.775480 -7.803047 -4.490976 2.695826 -47.706809 -12.642175 54.033927 -159.812712 -81.792540 173.302554 0.000000 0.000000 0.000000 -3.778340 -3.083017 8.044383 29.230857 10.437548 7.761081 50.668471 -43.149392 6.412865 -3.762296 33.629044 -7.393854 0.000000 0.000000 0.000000 
0.769397 34.984844 22.808697 177.610327 -37.491711 -177.855244 -1.009048 -2.375761 6.259800 -7.882701 -0.930332 -14.772391 9.315287 4.798166 21.511172 3.581020 -3.505370 7.145584 0.000000 0.000000 0.000000 6.140861 -3.101898 7.003393 -15.108677 -1.336924 2.398577 -0.110816 -1.871022 29.241314 9.329062 7.167634 -1.772164 0.000000 0.000000 0.000000 3.774960 0.498604 -10.195416 7.841339 3.973261 -15.722199 -1.309832 -6.622236 9.793944 0.084017 0.479962 0.034070 -1.485082 -5.012600 12.192172 5.488689 -11.015184 28.659563 0.000000 0.000000 0.000000 0.719472 -4.063627 7.698324 -7.700807 -4.051810 2.369865 -47.399023 -12.476076 54.570558 -158.518268 -81.809977 172.000515 0.000000 0.000000 0.000000 -3.745575 -2.957986 8.167925 29.419203 10.710321 7.525931 51.333909 -43.456641 6.928284 -3.934682 33.682033 -7.211186 0.000000 0.000000 0.000000 
0.682670 34.891903 22.903845 177.352309 -39.089333 -177.632170 -1.012089 -1.872269 5.600369 -7.816069 -1.368210 -14.713068 8.606240 4.714101 21.714505 3.433280 -3.870185 6.976651 0.000000 0.000000 0.000000 6.289575 -3.125356 6.558142 -15.324021 -1.209033 2.976987 0.151790 -1.746241 30.286927 9.633422 7.479274 -2.285884 0.000000 0.000000 0.000000 3.820270 0.391366 -10.640848 7.785668 4.278425 -15.976948 -1.181833 -6.268532 10.033531 0.109043 0.593787 0.066779 -1.313771 -5.021565 12.438189 5.620120 -11.435855 29.718341 0.000000 0.000000 0.000000 0.913465 -4.281619 7.978816 -7.566217 -4.178049 2.018666 -47.442487 -12.179926 54.757060 -158.681578 -81.905532 172.192238 0.000000 0.000000 0.000000 -3.672601 -2.915081 8.264107 29.551944 10.470281 7.676130 52.553507 -43.025414 5.943447 -3.983048 34.024813 -6.959565 0.000000 0.000000 0.000000 
0.636387 34.801727 23.024393 177.163755 -40.288028 -177.521206 -0.866191 -1.227264 4.976361 -7.852225 -1.507097 -14.980000 7.851693 4.577000 22.292942 3.188128 -4.435565 7.159510 0.000000 0.000000 0.000000 6.415200 -3.070516 6.241202 -15.497226 -1.179367 3.424342 0.355862 -1.613966 31.259952 9.974205 7.705260 -2.905530 0.000000 0.000000 0.000000 3.935893 0.618326 -10.809243 7.797735 4.261015 -16.312092 -1.212815 -6.509004 10.180919 0.134470 0.538449 0.092316 -1.238796 -4.882806 12.596332 5.825325 -11.186234 30.873644 0.000000 0.000000 0.000000 1.128898 -4.113076 8.062992 -7.612364 -4.064484 1.985533 -47.614656 -12.252297 55.009008 -158.021194 -82.270305 171.597670 0.000000 0.000000 0.000000 -3.515617 -2.668087 8.499963 29.653365 10.703975 7.615550 53.301492 -42.997339 5.559132 -4.221732 34.676672 -6.893188 0.000000 0.000000 0.000000 
0.622300 34.710251 23.143837 177.004544 -41.180348 -177.418207 -0.591761 -0.710539 4.588912 -8.050953 -1.130969 -15.017050 7.110239 5.052854 22.197690 3.191458 -4.943718 7.133570 0.000000 0.000000 0.000000 6.549731 -2.999867 6.109832 -15.717706 -1.265654 3.659847 0.538320 -1.507550 32.117421 10.356840 7.924710 -3.635121 0.000000 0.000000 0.000000 4.056295 0.479211 -10.873281 8.078370 4.365021 -16.715220 -1.040284 -6.020456 10.378092 0.180523 0.726450 0.082744 -1.095559 -4.921837 12.783338 5.752102 -11.510448 31.636050 0.000000 0.000000 0.000000 1.219314 -4.259773 8.286765 -7.715978 -4.674266 1.922629 -47.861229 -12.559738 55.122495 -157.674029 -82.679460 171.362930 0.000000 0.000000 0.000000 -3.458494 -2.798178 8.478964 29.662467 10.539229 7.878330 54.234840 -42.896289 4.884947 -4.420818 35.225164 -6.938767 0.000000 0.000000 0.000000 
